<svg xmlns="http://www.w3.org/2000/svg" viewBox="0 0 641 740" xml:space="preserve"><path fill="#0163AF" d="M638 331c0 40.825-.03 81.15.013 121.475.02 17.736-2.98 35.07-7.407 52.12-5.41 20.831-14.544 40.106-26.51 57.979-14.455 21.59-32.479 39.768-52.823 55.902-22.127 17.548-45.817 32.508-71.14 44.854-22.876 11.155-45.928 21.963-69.053 32.596-28.05 12.898-56.248 25.478-84.435 38.077-1.426.638-3.611.733-5.008.108-16.196-7.245-32.417-14.448-48.418-22.108-33.848-16.205-67.773-32.27-101.276-49.167-26.096-13.16-52.177-26.735-74.744-45.55-12.492-10.416-23.644-22.535-34.756-34.484-13.414-14.426-23.584-31.191-31.97-48.955-9.285-19.671-16.356-40.102-18.439-61.922-.987-10.35-1.936-20.756-1.948-31.138-.132-123.974-.064-247.948-.183-371.921-.003-4.014.975-6.474 4.802-7.806 21.034-7.317 41.777-15.629 63.141-21.79 22.303-6.432 45.115-11.21 67.865-15.94 13.792-2.869 27.874-4.381 41.853-6.309 13.017-1.795 26.045-3.572 39.115-4.907 10.344-1.058 20.748-1.774 31.142-2.05 31.707-.841 63.423-1.893 95.135-1.879 19.325.008 38.674 1.505 57.966 2.937 15.742 1.169 31.523 2.573 47.1 5.05 25.231 4.014 50.495 8.175 75.4 13.8 23.443 5.295 46.547 12.204 69.584 19.123 10.947 3.289 21.434 8.153 32.009 12.59 1.365.572 2.262 2.773 2.895 4.406.449 1.159.09 2.632.09 3.965V331M400.887 680.15c3.478-1.715 6.955-3.43 11.097-5.313 24.647-11.916 49.652-23.151 73.848-35.92 29.71-15.68 56.739-35.288 79.889-59.912 34.766-36.98 50.566-81.413 50.985-131.558.398-47.46.036-94.926.2-143.26 1.148-5.884-1.416-8.936-7.038-10.807-12.592-4.19-24.848-9.429-37.518-13.342-78.046-24.1-158.273-33.237-239.628-34-59.712-.559-119.036 4.079-177.773 15.082-37.934 7.106-75.237 16.612-111.194 30.89-10.573 4.198-10.556 4.23-10.222 15.378.04 1.332.01 2.666.01 3.998.003 46.812.006 93.623.056 141.627 1.35 35.093 12.298 67.105 30.991 96.639 21.889 34.581 51.923 60.258 87.166 80.431 50.382 28.84 103.201 52.676 155.727 77.19 12.798 5.973 23.713 7.463 35.99-.559 4.21-2.028 8.42-4.057 13.262-6.296 14.475-6.712 28.95-13.423 44.152-20.268m104.99-601.601v-9.791H491.22v23.357H466.26V68.722h-13.733v62.869h13.72v-26.668h25.266v26.687h14.365V78.549m-361.465-2.857v55.802h14.352v-26.48h25.261v26.502h13.75V68.694h-14.14v23.287h-25.295V68.857h-13.928v6.835m232.468-2.06-.289-5.224H329.808v63.219h47.459v-11.91h-33.284v-14.968h29.84V93.355h-29.837V80.026h32.895v-6.393M228.53 119.226c-4.197-2.734-4.658-6.99-4.658-11.434V68.776h-13.859c0 15.152-.314 29.964.145 44.752.202 6.528 3.382 12.247 9.469 15.511 10.872 5.831 22.049 5.708 33.054.537 5.937-2.79 9.566-7.971 10.25-14.448.764-7.254.783-14.597.908-21.905.14-8.096.032-16.197.032-24.336h-14.445v8.43c-.002 10.658.108 21.319-.047 31.975-.1 6.927-2.715 10.99-7.993 11.475-4.013.368-8.153-.637-12.856-1.541m195.613-51.159c-6.71.195-13.742-.83-20.058.846-11.794 3.13-19.507 14.92-20.061 28.136-.6 14.315 3.31 26.66 17.184 33.155 17.113 8.01 40.061.744 41.518-22.798h-13.206c-2.864 10.23-6.362 13.617-14.03 13.73-8.145.119-13.844-4.039-16.19-12.035-2.034-6.928-1.812-13.876 1.04-20.509 2.555-5.946 7.076-9.565 13.838-9.681 6.431-.11 11.118 2.592 13.953 8.533.505 1.058 1.996 2.214 3.116 2.306 3.568.295 7.176.11 11.086.11-1.313-11.424-7.556-17.97-18.19-21.793M270.407 71.91v8.38h18.87v51.305h14.399V80.167h18.61v-11.73c-16.746 0-33.191-.034-49.635.11-.752.007-1.49 1.619-2.244 3.363m-123.6 111.57c.063 2.993-.045 6.001.225 8.975.58 6.378 3.464 11.518 9.325 14.356 8.009 3.877 16.387 4.15 24.69 1.003 5.857-2.22 10.262-6.755 10.532-12.85.63-14.222.2-28.49.2-42.9h-6.972c0 5.034.076 9.826-.017 14.615-.164 8.472-.207 16.957-.732 25.41-.346 5.569-3.851 9.019-9.169 10.51-11.443 3.209-20.016-3.075-20.275-14.894-.114-5.156-.022-10.317-.022-15.476v-20.037h-7.785v31.288m198.964-1.29c-1.916-7.291-5.355-13.314-13.311-15.284-12.059-2.985-22.892 4.611-23.99 17.99-1.655 20.19 12.154 27.732 27.288 23.037 5.908-1.832 9.143-6.815 9.038-13.76-2.558 1.191-5.853 1.651-6.545 3.243-2.448 5.633-9.676 6.552-14.198 5.167-5.526-1.693-8.175-5.853-7.868-12.648h29.737c0-2.613 0-4.753-.15-7.745m48.994 26.982c2.827-.094 5.693.074 8.475-.334 6.728-.987 11.08-5.296 11.651-11.145.584-5.988-2.407-9.902-9.526-12.07-4.441-1.353-9.088-2.114-13.396-3.778-1.601-.618-3.584-3.176-3.422-4.63.17-1.53 2.473-3.492 4.233-4.058 6.313-2.033 10.654.112 13.755 6.042h6.29c-.558-6.842-3.305-10.905-8.94-11.935-3.997-.731-8.284-.855-12.3-.274-6.864.993-10.49 4.942-10.754 10.48-.274 5.761 2.722 9.375 9.694 11.402 3.979 1.156 8.215 1.645 11.966 3.28 2.023.883 4.856 3.963 4.503 5.314-.56 2.138-3.22 4.649-5.463 5.253-7.396 1.993-11.788-.437-15.404-7.287h-5.921c.167 8.329 4.238 12.305 14.56 13.74m105.611-42.048c-3.053-.451-4.642.533-5.665 3.814-2.997 9.614-6.516 19.066-10.142 29.477-3.48-9.8-6.607-18.672-9.786-27.526-2.361-6.58-2.39-6.57-9.844-5.077 4.935 12.332 9.905 24.582 14.685 36.906.644 1.658.893 3.874.357 5.516-2.384 7.315-2.511 7.273-11.008 8.348-.268 5.719 1.846 7.815 7.144 5.802 2.954-1.121 6.34-3.72 7.505-6.502 6.652-15.897 12.718-32.04 18.857-48.147.234-.616-.82-1.723-2.103-2.61m-268.52 39.868 6.997 2.078c0-10.739.278-20.063-.076-29.364-.38-10.013-7.558-15.37-17.37-13.045-2.92.692-5.508 2.779-8.252 4.22-.402.21-.824.382-1.607.742l-.755-4.187h-5.56v40.82h6.414c.09-1.27.216-2.234.22-3.198.025-7.323-.167-14.654.095-21.968.235-6.547 5.453-10.855 12.079-10.474 5.507.316 7.751 3.335 7.765 10.497.014 7.656.007 15.312.05 23.879m39.967-22.196c2.61 6.99 5.073 14.041 7.962 20.913.555 1.32 2.75 2.615 4.252 2.692 1.575.081 4.228-.93 4.69-2.127 4.95-12.819 9.558-25.77 14.27-38.71-5.12-1.402-7.807-.266-9.232 5.143-2.424 9.2-5.841 18.138-9.2 28.268-3.42-10.151-6.774-19.025-9.339-28.122-1.515-5.376-4.144-7.01-9.657-5.059a3937.612 3937.612 0 0 0 6.254 17.002m181.031-18.51v-11.094h-7.649v11.659l-6.84.578.302 5.872 6.684.797c0 7.95-.004 15.569.001 23.188.007 10.391 4.664 13.654 14.955 10.482v-4.064c-3.043-1.75-7.184-2.921-7.296-4.397-.635-8.373-.307-16.818-.307-25.373l7.572-.563v-6.084c-2.482-.132-4.614-.245-7.422-1.001m-95.348.835c-2.592-.348-3.49.75-3.434 3.369.144 6.813.047 13.63.047 20.447v17.405h7.07c0-5.824-.047-11.424.01-17.022.124-11.921 3.06-15.548 14.398-18.006v-8.87l-14.727 8.466c-1.245-1.223 2.6-5.595-3.364-5.789M250.33 203.215l.252 5.131h6.699v-41.09h-6.95v35.96m180.675-22.705v-13.12h-6.717v40.82h6.717v-27.7m-179.733-28.566-1.207 8.023h7.238v-8.17c-1.987 0-3.623 0-6.03.147m173.413 8.061h6.038v-7.867h-6.631c0 2.575 0 4.856.593 7.867z"/><path fill="#FFED00" d="M616.714 305.057c.028 47.464.39 94.93-.008 142.39-.42 50.145-16.219 94.578-50.985 131.558-23.15 24.624-50.18 44.232-79.889 59.911-24.196 12.77-49.201 24.005-74.19 35.559-1.602-11.268-2.596-22.213-4.188-33.07-2.146-14.637-2.64-28.545 7.467-41.228 3.495-4.386 4.898-10.867 5.97-16.63.996-5.353-2.33-8.74-7.52-9.558-1.084 9.228-5.229 17.147-11.09 24.12-14.44 17.177-32.172 29.755-53.449 37.086-11.452 3.947-23.319 5.696-35.388 4.594-7.821-.714-16.129-1.154-20.525-9.562-5.963 1.88-7.181 4.598-4.373 9.854 2.97 5.561 7.796 8.736 13.857 9.555 9.374 1.268 15.038 6.535 19.038 14.862 6.837 14.23 14.276 28.172 21.462 42.235-11.707 8.003-22.622 6.513-35.42.54-52.526-24.514-105.345-48.35-155.727-77.19-35.243-20.173-65.277-45.85-87.166-80.431-18.693-29.534-29.641-61.546-30.992-97.45-.002-47.952.05-95.093-.098-142.234-.012-3.97 1.122-6.041 4.882-7.355 13.633-4.764 27.003-10.35 40.79-14.593 75.955-23.375 154.051-32.731 233.197-33.51 32.07-.316 64.21 1.501 96.244 3.507 41.55 2.603 82.572 9.369 123.049 19.118 29.085 7.005 57.82 15.208 85.052 27.922M366.027 582.592c-21.483 11.655-44.396 18.88-68.721 20.932-7.309.617-14.91-.435-22.18-1.792-4.816-.898-6.295-4.772-5.262-8.614 1.387-5.162 4.921-2.716 7.998-2.68 7.92.093 15.848.017 23.758-.333 1.056-.046 2.025-2.072 3.034-3.18-1.283-.977-2.51-2.041-3.877-2.882-.484-.298-1.304-.052-1.97-.05-27.727.033-47.132-12.786-57.348-38.44-9.474-23.79-8.715-46.67 9.566-66.604 8.707-9.493 19.915-15.472 31.531-20.676 9.86-4.418 20.028-8.255 29.533-13.333 13.582-7.255 25.639-16.728 31.255-31.7 4.601-12.268 8.213-24.94 11.662-37.596 2.346-8.61 4.961-16.908 10.748-23.904.727-.88 1.024-2.116 1.52-3.187l-.91-.939c-1.49.79-3.376 1.238-4.398 2.43-3.655 4.258-7.764 8.382-10.302 13.281-3.262 6.296-5.382 13.222-7.624 20-5.702 17.234-13.349 33.404-29.049 43.616-9.548 6.21-20.305 10.553-30.48 15.809-11.503 5.942-23.57 11.049-34.3 18.167-17.17 11.39-28.242 27.756-32.178 48.169-4.88 25.31 4.902 45.814 23.003 62.65 7.196 6.692 15.854 11.813 24.034 17.786-3.699 10.861-.776 18.346 10.142 24.026 2.326 1.21 4.939 2.055 7.518 2.561 13.952 2.738 27.814 1.212 41.677-1.014 30.248-4.859 55.532-18.867 76.266-41.237 7.517-8.11 12.041-17.557 11.308-28.923-.429-6.645-3.328-11.89-9.747-14.43-1.305-.517-3.178.403-4.789.66.688 1.34 1.076 3.006 2.117 3.96 4.43 4.061 5.733 7.96 2.974 13.234-2.135 4.08-4.625 8.35-8.02 11.322-8.98 7.86-18.537 15.062-28.489 22.911m64.95-53.133c-2.702 2.716-5.582 5.285-8.016 8.224-.931 1.124-.84 3.094-1.214 4.68 1.966.32 4.24 1.414 5.826.781 2.374-.947 4.25-3.125 6.362-4.748 31.727-24.39 36.93-64.027 15.298-94.926-2.482-3.545-4.824-7.19-7.175-10.825-7.77-12.016-15.807-23.874-23.175-36.133-5.687-9.464-9.833-19.8-10.742-30.898-2.102-25.658 6.556-47.375 25.135-65.165.905-.867 1.726-1.82 2.586-2.734l-.755-1.488c-2.202.874-4.695 1.343-6.563 2.683-26.203 18.805-36.435 44.508-32.077 76.125 2.47 17.918 11.308 33.228 20.942 48.132 7.047 10.903 14.484 21.603 20.79 32.927 15.11 27.133 12.758 49.823-7.221 73.365m-146.16-30.137c-9.318 7.433-17.69 15.678-22.852 26.669-8.757 18.65-2.93 35.547 15.578 44.721 1.268.629 3.163-.01 4.767-.059-.196-1.636.004-3.462-.671-4.867-1.288-2.68-3.174-5.065-4.636-7.67-6.22-11.077-5.583-22.026 1.153-32.581 2.761-4.327 5.67-8.744 9.322-12.283 8.83-8.558 17.906-16.9 27.32-24.807 9.087-7.634 18.155-15.144 23.975-25.765.182-.331.801-.423 1.756-.89.576 1.679 1.172 3.146 1.583 4.663 1.131 4.17 1.958 8.442 3.4 12.498.46 1.296 2.472 2.04 3.774 3.037.687-1.347 2.144-2.825 1.94-4.019a790.237 790.237 0 0 0-5.71-29.817c-.685-3.244-2.575-5.754-6.438-5.858-4.007-.108-4.445 3.208-5.064 5.742-2.956 12.103-10.358 21.093-19.782 28.604-9.496 7.569-19.228 14.843-29.416 22.682m89.23-54.143c1.868 6.523 2.836 13.482 5.755 19.495 13.565 27.945 7.88 55.255-14.432 76.412-.994.944-1.854 2.03-2.777 3.05l.747 1.59c2.182-.604 4.908-.582 6.451-1.922 6.604-5.734 14.202-10.959 18.993-18.026 15.32-22.603 16.054-46.366 1.666-69.856-7.342-11.986-10.989-24.475-8.873-38.487.158-1.041-.196-2.16-.32-3.305-5.513 1.616-7.858 11.815-7.21 31.049z"/><path fill="#FBFBFA" d="M616.81 304.622c-27.327-12.28-56.063-20.482-85.148-27.487-40.477-9.75-81.499-16.515-123.049-19.118-32.035-2.006-64.173-3.823-96.244-3.507-79.146.779-157.242 10.135-233.196 33.51-13.788 4.243-27.158 9.83-40.791 14.593-3.76 1.314-4.894 3.385-4.882 7.355.148 47.14.096 94.282.075 141.638-.026-46.597-.029-93.408-.032-140.22 0-1.332.03-2.666-.01-3.998-.334-11.148-.35-11.18 10.222-15.379 35.957-14.277 73.26-23.783 111.194-30.889 58.737-11.003 118.061-15.64 177.773-15.081 81.355.762 161.582 9.899 239.628 34 12.67 3.912 24.926 9.15 37.518 13.341 5.622 1.871 8.186 4.923 6.942 11.242z"/><path fill="#E30A13" d="M343.187 706.724c-7.47-14.054-14.909-27.995-21.746-42.226-4-8.327-9.664-13.594-19.038-14.862-6.061-.82-10.886-3.994-13.857-9.555-2.808-5.256-1.59-7.974 4.373-9.854 4.396 8.408 12.704 8.848 20.525 9.562 12.07 1.102 23.936-.647 35.388-4.594 21.277-7.331 39.008-19.91 53.448-37.086 5.862-6.973 10.007-14.892 11.09-24.12 5.192.817 8.517 4.205 7.522 9.558-1.073 5.763-2.476 12.244-5.97 16.63-10.109 12.683-9.614 26.59-7.468 41.228 1.592 10.857 2.586 21.802 3.856 33.155a55.517 55.517 0 0 1-11.016 5.327c-3.135-12.444-5.628-24.635-8.244-36.8-1-4.652-3.673-6.396-8.338-5.52-1.933.363-3.81 1.136-5.65 1.876-9.999 4.017-19.923 8.227-29.98 12.089-9.47 3.635-11.493 7.382-7.355 16.729 4.833 10.918 10.226 21.59 15.376 32.368-4.21 2.028-8.42 4.057-12.916 6.095z"/><path fill="#FEEB01" d="M356.419 700.523c-5.466-10.673-10.859-21.344-15.692-32.262-4.138-9.347-2.115-13.094 7.354-16.73 10.058-3.861 19.982-8.071 29.981-12.088 1.84-.74 3.717-1.513 5.65-1.876 4.665-.876 7.338.868 8.338 5.52 2.616 12.165 5.11 24.356 7.881 36.866-14.245 7.042-28.72 13.753-43.512 20.57z"/><path fill="#F5F7FC" d="M505.878 79.043v52.567h-14.365v-26.687h-25.266v26.668h-13.72V68.72h13.733v23.394h24.96V68.758h14.658v10.285z"/><path fill="#F4F7FC" d="M144.413 75.223v-6.366h13.928v23.124h25.296V68.694h14.138v62.822h-13.749v-26.503h-25.261v26.481h-14.352V75.223z"/><path fill="#F3F6FB" d="M376.881 74.091v5.935h-32.895v13.33h29.836v11.393h-29.839v14.968h33.284v11.91h-47.459V68.408H376.592c.113 2.032.2 3.628.29 5.683z"/><path fill="#F7F9FC" d="M228.839 119.481c4.393.65 8.533 1.654 12.546 1.286 5.278-.485 7.893-4.548 7.993-11.475.155-10.656.045-21.317.047-31.975v-8.43h14.445c0 8.139.108 16.24-.032 24.336-.125 7.308-.144 14.65-.909 21.905-.683 6.477-4.312 11.658-10.249 14.448-11.005 5.171-22.182 5.294-33.054-.537-6.087-3.264-9.267-8.983-9.47-15.511-.458-14.788-.144-29.6-.144-44.752h13.86v39.016c0 4.444.46 8.7 4.967 11.69z"/><path fill="#FAFBFD" d="M424.535 68.172c10.241 3.717 16.484 10.264 17.797 21.688-3.91 0-7.518.185-11.086-.11-1.12-.092-2.611-1.248-3.116-2.306-2.835-5.941-7.522-8.643-13.953-8.533-6.762.116-11.283 3.735-13.839 9.681-2.851 6.633-3.073 13.581-1.04 20.51 2.347 7.995 8.046 12.153 16.19 12.034 7.669-.113 11.167-3.5 14.031-13.73h13.206c-1.457 23.542-24.405 30.808-41.518 22.798-13.874-6.495-17.784-18.84-17.184-33.155.554-13.217 8.267-25.007 20.06-28.136 6.317-1.675 13.35-.651 20.452-.741z"/><path fill="#F2F5FB" d="M270.412 71.47c.75-1.304 1.487-2.916 2.24-2.923 16.443-.144 32.888-.11 49.635-.11v11.73h-18.611v51.428h-14.398V80.29h-18.87c0-3.14 0-5.76.004-8.82z"/><path fill="#F3F6FB" d="M146.807 182.983v-30.791h7.785v20.037c0 5.159-.092 10.32.022 15.476.26 11.819 8.832 18.103 20.275 14.894 5.318-1.491 8.823-4.941 9.169-10.51.525-8.453.568-16.938.732-25.41.093-4.79.017-9.581.017-14.615h6.973c0 14.41.428 28.678-.201 42.9-.27 6.095-4.675 10.63-10.532 12.85-8.303 3.147-16.681 2.874-24.69-1.003-5.861-2.838-8.745-7.978-9.325-14.356-.27-2.974-.162-5.982-.225-9.472z"/><path fill="#F8F9FD" d="M345.847 182.616c.075 2.566.075 4.706.075 7.32h-29.737c-.307 6.794 2.342 10.954 7.868 12.647 4.522 1.385 11.75.466 14.198-5.167.692-1.592 3.987-2.052 6.545-3.243.105 6.945-3.13 11.928-9.038 13.76-15.134 4.695-28.943-2.847-27.287-23.037 1.097-13.379 11.93-20.975 23.989-17.99 7.956 1.97 11.395 7.993 13.387 15.71m-27.006-6.29-3.652 7.307h23.5c-.421-4.904-2.528-8.406-6.94-10.111-4.484-1.733-8.761-1.31-12.908 2.804z"/><path fill="#F5F7FC" d="M394.316 209.124c-9.871-1.387-13.942-5.363-14.11-13.692h5.922c3.616 6.85 8.008 9.28 15.404 7.287 2.243-.604 4.904-3.115 5.463-5.253.353-1.35-2.48-4.43-4.503-5.313-3.751-1.636-7.987-2.125-11.966-3.281-6.972-2.027-9.968-5.64-9.694-11.401.264-5.54 3.89-9.488 10.754-10.48 4.016-.582 8.303-.458 12.3.273 5.635 1.03 8.382 5.093 8.94 11.935h-6.29c-3.101-5.93-7.442-8.075-13.755-6.042-1.76.566-4.063 2.528-4.233 4.059-.162 1.453 1.82 4.01 3.422 4.63 4.308 1.663 8.955 2.424 13.396 3.777 7.119 2.168 10.11 6.082 9.526 12.07-.57 5.85-4.923 10.158-11.651 11.145-2.782.408-5.648.24-8.925.286zM500.793 167.129c.868.883 1.922 1.99 1.688 2.606-6.14 16.107-12.205 32.25-18.857 48.147-1.164 2.782-4.551 5.38-7.505 6.502-5.298 2.013-7.412-.083-7.144-5.802 8.497-1.075 8.624-1.033 11.008-8.348.536-1.642.287-3.858-.357-5.516-4.78-12.324-9.75-24.574-14.685-36.906 7.453-1.493 7.483-1.503 9.844 5.077 3.179 8.854 6.306 17.727 9.786 27.526 3.626-10.41 7.145-19.863 10.142-29.477 1.023-3.28 2.612-4.265 6.08-3.81zM231.837 206.537c-.022-8.11-.015-15.767-.03-23.423-.013-7.162-2.257-10.181-7.764-10.497-6.626-.38-11.844 3.927-12.079 10.474-.262 7.314-.07 14.645-.096 21.968-.003.964-.128 1.927-.219 3.198h-6.414v-40.82h5.56l.755 4.187c.783-.36 1.205-.531 1.607-.742 2.744-1.441 5.332-3.528 8.252-4.22 9.812-2.325 16.99 3.032 17.37 13.045.354 9.3.076 18.625.076 29.364-2.668-.792-4.833-1.435-7.018-2.534z"/><path fill="#F4F6FB" d="M271.677 184.435a7372.203 7372.203 0 0 1-6.106-16.64c5.513-1.95 8.142-.317 9.657 5.059 2.565 9.097 5.918 17.97 9.339 28.122 3.359-10.13 6.776-19.068 9.2-28.268 1.425-5.409 4.112-6.545 9.231-5.142-4.71 12.94-9.32 25.89-14.269 38.71-.462 1.197-3.115 2.207-4.69 2.126-1.502-.077-3.697-1.371-4.252-2.692-2.889-6.872-5.351-13.924-8.11-21.275z"/><path fill="#E6ECF7" d="M453.195 166.608c2.47.435 4.6.548 7.083.68v6.084l-7.572.563c0 8.555-.328 17 .307 25.373.112 1.476 4.253 2.646 7.296 4.397v4.066c-10.29 3.17-14.948-.093-14.955-10.484-.005-7.619 0-15.238 0-23.188l-6.685-.797-.302-5.872 6.84-.578v-11.66h7.65c0 3.856 0 7.475.338 11.416z"/><path fill="#F4F6FB" d="M357.945 167.123c5.528.193 1.682 4.565 2.927 5.788l14.727-8.466v8.87c-11.338 2.458-14.274 6.085-14.397 18.006-.058 5.598-.01 11.198-.01 17.022h-7.071v-17.405c0-6.816.097-13.634-.047-20.447-.056-2.62.842-3.717 3.87-3.368z"/><path fill="#E0E8F5" d="M250.332 202.749v-35.494h6.95v41.091h-6.699c-.092-1.889-.172-3.51-.251-5.597z"/><path fill="#FBFCFE" d="M431.007 181.009v27.203h-6.717v-40.82h6.717v13.617z"/><path fill="#E2E9F6" d="M251.66 151.872c2.022-.073 3.658-.073 5.645-.073v8.169h-7.238c.426-2.827.816-5.425 1.594-8.096z"/><path fill="#FFF" d="M424.391 159.64c-.296-2.645-.296-4.926-.296-7.501h6.63v7.867c-2.16 0-4.099 0-6.334-.365z"/><path fill="#E30A13" d="M366.34 582.4c9.639-7.657 19.196-14.858 28.175-22.719 3.396-2.972 5.886-7.242 8.021-11.322 2.759-5.274 1.457-9.173-2.974-13.234-1.04-.954-1.429-2.62-2.117-3.96 1.611-.257 3.484-1.177 4.789-.66 6.42 2.54 9.318 7.785 9.747 14.43.733 11.366-3.79 20.812-11.308 28.923-20.734 22.37-46.018 36.378-76.266 41.237-13.863 2.226-27.725 3.752-41.677 1.014-2.58-.506-5.192-1.351-7.518-2.561-10.918-5.68-13.841-13.165-10.142-24.026-8.18-5.973-16.838-11.094-24.034-17.787-18.101-16.835-27.883-37.339-23.003-62.649 3.936-20.413 15.009-36.779 32.178-48.17 10.73-7.117 22.797-12.224 34.3-18.166 10.175-5.256 20.932-9.599 30.48-15.81 15.7-10.211 23.347-26.381 29.049-43.616 2.242-6.777 4.362-13.703 7.624-19.999 2.538-4.9 6.647-9.023 10.302-13.282 1.022-1.19 2.909-1.64 4.399-2.429l.91.94c-.497 1.07-.794 2.306-1.521 3.186-5.787 6.996-8.402 15.295-10.748 23.904-3.45 12.656-7.06 25.328-11.662 37.596-5.616 14.972-17.673 24.445-31.255 31.7-9.505 5.078-19.673 8.915-29.533 13.333-11.616 5.204-22.824 11.183-31.53 20.676-18.282 19.934-19.041 42.814-9.567 66.605 10.216 25.653 29.62 38.472 57.347 38.438.667 0 1.487-.247 1.97.051 1.367.84 2.595 1.905 3.878 2.881-1.009 1.11-1.978 3.135-3.034 3.181-7.91.35-15.838.426-23.758.333-3.077-.036-6.611-2.482-7.998 2.68-1.033 3.842.446 7.716 5.263 8.614 7.268 1.357 14.87 2.409 22.179 1.792 24.325-2.051 47.238-9.277 69.033-21.125z"/><path fill="#E30B13" d="M431.212 529.191c19.745-23.274 22.097-45.964 6.987-73.097-6.306-11.324-13.743-22.024-20.79-32.927-9.634-14.904-18.472-30.214-20.942-48.132-4.358-31.617 5.874-57.32 32.077-76.125 1.868-1.34 4.36-1.809 6.563-2.683l.755 1.488c-.86.913-1.681 1.867-2.586 2.734-18.58 17.79-27.237 39.507-25.135 65.165.909 11.098 5.055 21.434 10.742 30.898 7.368 12.26 15.405 24.117 23.175 36.133 2.35 3.635 4.693 7.28 7.175 10.825 21.632 30.899 16.43 70.536-15.298 94.926-2.112 1.623-3.988 3.801-6.362 4.748-1.586.633-3.86-.46-5.826-.782.374-1.585.283-3.555 1.214-4.68 2.434-2.938 5.314-5.507 8.25-8.49z"/><path fill="#E30C12" d="M285.097 499.104c9.908-7.62 19.64-14.895 29.136-22.464 9.424-7.51 16.826-16.5 19.782-28.604.62-2.534 1.057-5.85 5.064-5.742 3.863.104 5.753 2.614 6.439 5.858 2.091 9.9 3.999 19.844 5.708 29.817.205 1.194-1.252 2.672-1.939 4.019-1.302-.997-3.313-1.741-3.774-3.037-1.442-4.056-2.269-8.328-3.4-12.498-.411-1.517-1.007-2.984-1.583-4.663-.955.467-1.574.559-1.756.89-5.82 10.621-14.888 18.131-23.975 25.765-9.414 7.908-18.49 16.25-27.32 24.807-3.652 3.539-6.56 7.956-9.322 12.283-6.736 10.555-7.373 21.504-1.153 32.58 1.462 2.606 3.348 4.99 4.636 7.67.675 1.406.475 3.232.67 4.868-1.603.05-3.498.688-4.766.06-18.508-9.175-24.335-26.073-15.578-44.722 5.162-10.991 13.534-19.236 23.131-26.887z"/><path fill="#E30B13" d="M374.023 444.711c-.624-18.766 1.721-28.965 7.235-30.58.123 1.145.477 2.263.32 3.304-2.117 14.012 1.53 26.501 8.872 38.487 14.388 23.49 13.654 47.253-1.666 69.856-4.79 7.067-12.39 12.292-18.993 18.026-1.543 1.34-4.27 1.318-6.451 1.922l-.747-1.59c.923-1.02 1.783-2.106 2.777-3.05 22.313-21.157 27.997-48.467 14.432-76.412-2.919-6.013-3.887-12.972-5.779-19.963z"/><path fill="#0A68B2" d="M319.104 176.042c3.884-3.83 8.161-4.253 12.645-2.52 4.412 1.705 6.519 5.207 6.94 10.111h-23.5c1.412-2.824 2.532-5.065 3.915-7.59z"/></svg>